<svg xmlns="http://www.w3.org/2000/svg" xmlns:xlink="http://www.w3.org/1999/xlink" viewBox="0 0 2255 739.65"><defs><style>.cls-1{fill:url(#Nouvelle_nuance_de_dégradé_1_12);}.cls-2{opacity:0.68;}.cls-3{fill:#fff;}.cls-4{opacity:0.42;}.cls-5{fill:#1e1e1e;}</style><linearGradient id="Nouvelle_nuance_de_dégradé_1_12" x1="41.68" y1="41.68" x2="697.97" y2="697.97" gradientUnits="userSpaceOnUse"><stop offset="0" stop-color="#71bd22"/><stop offset="0.22" stop-color="#6ebc25"/><stop offset="0.4" stop-color="#63ba2e"/><stop offset="0.57" stop-color="#52b63e"/><stop offset="0.74" stop-color="#39b053"/><stop offset="0.9" stop-color="#19a96f"/><stop offset="1" stop-color="#00a385"/></linearGradient></defs><g id="Layer_2" data-name="Layer 2"><g id="Calque_1" data-name="Calque 1"><rect class="cls-1" width="739.65" height="739.65" rx="142.3"/><g class="cls-2"><polygon class="cls-3" points="398.26 368.58 216.11 550.07 459.19 426.74 398.26 368.58"/><path class="cls-3" d="M216.11,551a.89.89,0,0,1-.63-1.52L397.63,368a.9.9,0,0,1,1.25,0l60.93,58.16a.86.86,0,0,1,.26.77.9.9,0,0,1-.47.67L216.52,550.87A1,1,0,0,1,216.11,551ZM398.28,369.83,220.73,546.73,457.67,426.52Z"/></g><g class="cls-4"><polygon class="cls-3" points="204.33 183.47 204.33 550.77 392.61 363.18 204.33 183.47"/><path class="cls-3" d="M204.33,551.66a1,1,0,0,1-.34-.06.91.91,0,0,1-.55-.83V183.47a.9.9,0,0,1,1.51-.65L393.22,362.54a.9.9,0,0,1,.28.63.88.88,0,0,1-.26.64L205,551.4A.88.88,0,0,1,204.33,551.66Zm.9-366.11V548.63L391.33,363.2Z"/></g><polygon class="cls-3" points="214.12 182.01 466.58 422.99 577.85 366.54 214.12 182.01"/><path class="cls-3" d="M466.58,423.89a.9.9,0,0,1-.61-.25l-252.46-241a.89.89,0,0,1,1-1.44L578.25,365.75a.89.89,0,0,1,0,1.59L467,423.79A1,1,0,0,1,466.58,423.89ZM219.11,185.53,466.74,421.91l109.14-55.37Z"/><path class="cls-5" d="M1205.2,428.42H1047.66l-22.56,43.24c-8.28,15-16.17,20.68-28.58,20.68-14.29,0-25.19-11.28-25.19-24.44,0-7.52,3.38-13.92,6-18.8l103.4-195.53c15.42-28.2,30.09-32,45.88-32,15.41,0,29.7,3.76,45.49,32L1276.27,449.1c2.63,4.88,5.64,11.28,5.64,18.8a24.48,24.48,0,0,1-24.82,24.44c-12.41,0-20.68-5.27-28.95-20.68Zm-131.6-48.89h106l-53-101.14Z"/><path class="cls-5" d="M1390.94,466c0,16.16-10.15,26.32-26.32,26.32S1338.3,482.18,1338.3,466V276.13c0-46.25,13.91-50.76,52.64-50.76h112.8c52.27,0,88.37,32.34,88.37,84.6,0,39.86-23.69,66.18-56.78,77.46l46.25,56C1589.85,453.61,1594,460,1594,469c0,13.16-11.66,23.32-25.2,23.32-9.77,0-17.67-3.39-29-17.68l-62.79-80.09h-86.11Zm109-191.77H1398.46c-7.52,0-7.52,3.76-7.52,11.28v60.16h109c29,0,39.48-14.28,39.48-35.72S1528.94,274.25,1500,274.25Z"/><path class="cls-5" d="M1818.08,466c0,16.16-10.15,26.32-26.32,26.32s-26.32-10.16-26.32-26.32V375.77L1648.12,267.48c-6-6-9-12.78-9-19.55,0-17.67,12.78-26.32,26.69-26.32,6.77,0,13.92,3,19.56,8.65l106.41,98.89,106.41-98.89c5.64-5.64,12.78-8.65,19.55-8.65,13.91,0,26.7,8.65,26.7,26.32,0,6.77-3,13.54-9,19.55L1818.08,375.77Z"/><path class="cls-5" d="M2178.29,428.42H2020.74l-22.56,43.24c-8.27,15-16.17,20.68-28.57,20.68-14.29,0-25.2-11.28-25.2-24.44,0-7.52,3.39-13.92,6-18.8l103.4-195.53c15.42-28.2,30.08-32,45.87-32,15.42,0,29.71,3.76,45.5,32L2249.36,449.1c2.63,4.88,5.64,11.28,5.64,18.8a24.48,24.48,0,0,1-24.82,24.44c-12.41,0-20.68-5.27-28.95-20.68Zm-131.6-48.89h106l-53-101.14Z"/></g></g></svg>